<svg width="512" height="512" viewBox="0 0 512 512" fill="none" xmlns="http://www.w3.org/2000/svg">
<g clip-path="url(#clip0_314_26)">
<rect width="512" height="512" fill="#060000"/>
<path d="M443.562 1C441.758 7.81025 437.307 13.4207 433.899 19.5978C431.837 23.3345 429.745 27.0543 428.615 31.5026C436.854 22.8587 445.093 14.2148 453.332 5.57089C453.981 6.1065 454.63 6.6421 455.278 7.17771C450.82 14.2646 446.362 21.3516 441.903 28.4385C442.125 28.6734 442.348 28.9084 442.57 29.1433C454.898 21.1257 467.227 13.1081 479.555 5.09055C479.849 5.44889 480.143 5.80723 480.437 6.16556C476.691 9.00094 473.471 12.4059 469.967 15.4255C460.325 23.7319 450.488 31.8149 440.616 39.8494C426.693 51.1816 412.091 61.5477 396.345 70.2325C367.902 85.9204 339.311 101.29 312.087 119.151C289.237 134.143 267.16 150.161 245.262 166.438C230.994 177.044 217.495 188.706 205.591 201.984C190.557 218.753 176.151 236.035 162.397 253.91C140.003 283.012 118.914 313.016 98.9147 343.768C84.6288 365.734 70.2096 387.671 58.3717 411.136C57.146 413.565 55.4595 415.771 54.3284 418.237C52.6656 421.863 49.6853 419.371 47.388 419.932C45.5807 420.374 44.2817 419.556 43.9579 417.388C43.4344 413.885 42.2466 410.44 42.0674 406.933C40.8212 382.551 45.0947 358.846 51.2636 335.403C51.4504 334.693 52.0493 334.092 52.7407 332.984C53.6928 346.328 54.3384 359.197 58.6999 371.566C56.7749 353.919 59.2721 337.058 66.9587 321.051C66.6403 332.223 64.6844 343.334 66.7912 354.587C68.8607 342.58 70.7691 330.541 73.0375 318.572C76.4488 300.57 79.6383 282.444 88.0679 265.908C93.8967 254.475 101.861 244.398 110.043 234.603C120.413 222.187 131.475 210.371 143.534 199.167C145.465 213.51 143.306 228.388 150.493 241.652C150.693 233.445 148.74 225.449 148.964 217.26C149.434 200.072 152.883 183.67 159.862 167.843C163.86 158.776 170.76 152.165 176.833 144.885C183.396 137.018 190.581 129.597 198.053 122.575C213.724 107.848 230.388 94.3166 248.773 83.036C249.571 82.5464 250.508 82.283 252.128 81.5978C248.018 95.3923 243.077 108.416 243.285 122.477C246.182 107.698 250.945 93.6194 259.102 80.9254C262.11 76.2455 266.472 72.6653 271.502 69.9607C284.955 62.7265 298.329 55.3453 311.753 48.0572C312.137 47.8491 312.731 48.0309 313.728 48.0309C307.901 62.528 302.885 77.0689 301.562 92.7134C304.704 86.522 307.918 80.3663 310.972 74.1321C317.806 60.183 326.06 47.0605 335.798 35.0489C340.018 29.8421 347.328 28.0537 353.466 25.359C366.51 19.6316 379.892 14.6997 393.614 10.7276C407.756 6.63421 421.971 3.00463 436.85 1.39608C439.042 1 441.083 1 443.562 1Z" fill="white"/>
<path d="M23.6986 511.241C23.5347 511.872 23.2976 512.159 23.0302 512.723C23 513 22.5 513 22.25 513C22.1078 512.384 22.2156 511.768 22.6225 511.037C23.1562 510.914 23.3908 510.905 23.6986 511.241Z" fill="#010002"/>
<path d="M460.896 61.1968C466.788 60.5825 471.734 57.6643 477.046 55.9166C480.674 54.7232 484.068 52.8186 488 51.0352C488 56.5664 487.808 61.667 488.082 66.7425C488.217 69.2359 487.027 70.0533 485.152 71.0036C472.013 77.6615 458.535 83.4731 444.38 87.7606C452.693 87.5196 460.687 85.5085 468.686 83.6498C472.895 82.672 476.986 81.1961 481.142 79.9883C481.982 79.7441 482.774 78.2815 483.627 79.4175C484.12 80.0741 484.231 81.4773 483.872 82.2422C480.875 88.6124 478.177 94.8473 471.174 98.5712C453.428 108.007 434.779 114.029 414.798 116.038C412.878 116.231 411.099 117.244 409.046 117.038C407.254 116.857 405.43 117 403.628 117.322C413.197 119.269 422.746 118.209 432.322 117.352C443.492 116.353 454.184 113.494 464.86 110.206C468.318 109.141 466.884 112.472 466.415 114.094C463.355 124.663 458.495 134.348 452.177 143.362C442.761 156.796 431.119 166.942 414.748 171.186C409.252 172.612 404.071 175.387 398.4 176.657C408.346 176.386 417.947 173.94 427.739 172.328C417.16 179 405.807 183.953 394.277 188.604C400.808 189.361 406.919 186.759 413.826 187.034C409.506 194.696 402.678 199.315 396.021 203.953C370.293 221.879 341.091 231.543 311.03 238.938C296.804 242.438 282.409 244.793 267.639 245.267C261.418 245.467 255.321 245.589 249.115 245.078C237.618 244.131 226.393 245.945 215.462 249.881C224.091 248.57 232.777 249.373 241.412 248.916C251.368 248.389 260.769 251.199 270.42 252.609C281.812 254.273 293.325 255.087 304.855 253.096C309.041 252.373 313.351 252.681 317.621 252.256C325.084 251.512 332.481 250.704 339.791 249.031C340.688 248.825 341.673 249.003 342.949 249.003C332.539 271.389 317.706 289.267 295.436 299.665C284.016 304.997 271.75 308.501 259.933 313.008C247.749 317.656 235.249 321.2 222.484 323.716C216.425 324.909 210.203 325.289 204.05 325.992C199.859 326.471 195.659 326.871 191.486 328C194.242 328 196.999 327.951 199.754 328.009C207.678 328.177 215.587 328.311 223.519 328.779C235.791 329.503 247.274 324.908 258.746 321.032C260.864 320.316 263.007 319.672 265.532 318.957C266.192 318.883 266.458 318.845 266.736 319.211C251.572 330.204 235.614 339.483 219.352 348.295C201.69 357.866 183.71 366.627 164.638 373.104C152.796 377.125 140.489 378.691 128.314 381.026C121.129 382.404 113.881 383.671 106.877 387.184C109.913 389.188 112.409 387.295 114.54 386.791C124.7 384.393 134.96 383.425 145.285 384.084C159.911 385.018 172.992 379.972 185.982 374.455C193.312 371.343 200.446 367.769 208.384 364.069C206.058 368.898 201.814 371.136 198.439 373.679C179.944 387.617 159.572 398.015 137.215 404.372C125.037 407.834 112.532 410.737 101.217 416.296C92.8402 420.412 84.6941 421.828 75.4526 420.628C78.1113 413.484 82.4458 406.955 86.4104 400.395C99.0666 379.454 111.76 358.526 125.823 338.459C136.696 322.944 147.891 307.688 159.662 292.851C170.851 278.75 182.332 264.912 194.636 251.738C204.786 240.869 214.43 229.496 225.286 219.331C242.995 202.749 260.985 186.51 279.933 171.268C303.302 152.469 328.599 136.625 353.471 120.077C374.335 106.196 394.538 91.3866 414.46 76.171C429.822 64.4384 445.075 52.5756 460.039 40.3508C465.655 35.7636 470.734 30.5131 475.981 25.4846C480.354 21.2938 480.321 21.2301 483.588 26.0914C484.829 27.9385 486.317 29.5805 487.058 31.8071C489.369 38.748 488.444 42.0037 482.609 45.7858C475.331 50.504 468.017 55.1683 460.486 60.1208C460.711 60.5431 459.974 61.2996 460.896 61.1968Z" fill="white"/>
<path d="M416.729 68.7652C400.807 79.8402 385.396 91.0051 369.371 101.299C351.199 112.972 333.126 124.816 315.334 137.057C301.968 146.254 289.356 156.491 276.67 166.636C252.218 186.19 229.921 208.008 208.215 230.441C193.855 245.284 180.486 261.037 167.278 276.957C148.093 300.08 130.427 324.29 113.615 349.108C102.168 366.007 91.8719 383.7 81.4139 401.249C75.922 410.464 70.0143 419.491 65.9173 429.489C64.6432 432.599 62.6917 435.594 62.2004 438.817C61.6614 442.352 59.8165 441.539 57.9678 440.942C48.3976 437.848 48.5094 437.86 53.9761 428.041C70.6462 398.1 88.3172 368.756 107.056 340.076C122.788 315.999 139.405 292.499 156.978 269.739C168.954 254.226 181.501 239.137 194.705 224.588C205.384 212.821 215.905 200.903 227.553 190.116C239.629 178.93 252.589 168.764 265.582 158.619C285.748 142.874 306.573 128.119 328.156 114.444C345.951 103.169 364.093 92.4427 382.064 81.4443C405.378 67.1754 429.238 53.8099 452.24 39.0217C453.785 38.0285 454.573 35.6614 458.349 36.2246C444.614 48.1239 430.691 58.1752 416.729 68.7652Z" fill="#FCFCFC"/>
<path d="M483.502 389.793C468.64 390.97 454.349 393.275 440.179 396.102C415.114 401.103 390.427 407.607 366.232 415.937C345.924 422.93 325.904 430.649 306.268 439.333C283.39 449.452 260.75 460.119 237.745 469.934C209.216 482.106 179.771 491.495 149.411 498.157C133.599 501.626 117.682 504.44 101.712 506.716C93.6763 507.861 85.4587 508.672 77.2578 509.094C66.753 509.633 56.2761 510.673 45.753 511.101C41.9706 511.255 39.4065 509.203 39.4006 506.51C39.3948 503.809 42.0227 502.078 45.7254 501.852C61.9061 500.862 78.1349 499.954 94.1958 497.861C122.999 494.109 151.366 488.168 179.172 479.484C206.618 470.912 233.268 460.49 259.325 448.353C295.939 431.299 332.649 414.405 371.51 402.878C393.265 396.426 415.216 390.885 437.584 386.788C451.954 384.156 466.429 382.431 480.826 380.108C483.265 379.714 485.981 379.375 488.546 380.807C490.576 381.94 492.339 382.99 491.963 385.588C491.575 388.265 489.167 388.418 487.198 388.972C486.131 389.273 484.854 388.583 483.502 389.793Z" fill="#FEFEFE"/>
<path d="M23.1273 511.097C25.6214 500.82 26.1111 490.716 23.0188 480.59C21.8984 476.921 24.7211 474.453 26.1506 471.721C28.6824 466.882 31.9269 462.422 34.6524 457.676C35.466 456.259 35.6473 455.856 37.4203 456.669C42.0655 458.8 46.9293 460.454 51.707 462.295C54.3099 463.299 55.6243 464.66 54.6667 467.877C52.5602 474.953 50.6443 482.108 49.1627 489.336C48.7618 491.292 47.9508 492.335 46.5384 492.825C36.8274 496.194 30.4489 503.541 24.0204 511.371C23.6256 511.481 23.4793 511.376 23.1273 511.097Z" fill="#FEFEFE"/>
<path d="M56.1154 445.983C57.11 446.237 57.6824 446.574 58.2971 446.693C63.8359 447.769 62.9121 450.621 61.1914 454.716C59.5506 458.62 57.8858 459.492 54.1193 457.667C49.1074 455.238 43.9607 453.048 38.7379 451.119C37.3188 450.594 36.6274 450.127 37.0724 448.885C37.9841 446.341 39.0671 443.846 40.2669 441.424C40.7399 440.469 41.4 439.65 43.0031 440.429C47.1548 442.45 51.4656 444.142 56.1154 445.983Z" fill="#FBFBFB"/>
<path d="M460.718 33.9396C460.131 35.0104 458.845 35.9838 458.289 34.7874C457.863 33.8706 459.778 34.1559 460.718 33.9396Z" fill="#010002"/>
<path d="M266.125 319.101C266.403 317.646 267.434 318.018 268.363 318.11C268.824 318.156 268.962 318.486 268.578 318.757C268.216 319.013 267.702 319.056 267.002 319.403C266.606 319.504 266.465 319.393 266.125 319.101Z" fill="#010002"/>
<path d="M456.585 5.79453C455.525 5.72903 455.513 5.23281 455.953 4.68183C456.082 4.51975 456.348 4.46672 456.551 4.36371C456.672 4.75917 456.792 5.15464 456.585 5.79453Z" fill="#010002"/>
<path d="M462.193 32.081C462.445 30.9648 463.004 30.7482 463.694 31.5082C463.271 31.8121 462.848 32.116 462.193 32.081Z" fill="#010002"/>
<path d="M426.34 33.5385C426.051 32.6564 426.219 31.8131 426.872 32.1262C427.996 32.6658 426.938 33.2705 426.34 33.5385Z" fill="white"/>
<path d="M460.876 60.899C460.597 62.3543 459.566 61.9826 458.637 61.8898C458.176 61.8438 458.038 61.5144 458.422 61.2429C458.784 60.9869 459.298 60.9444 459.999 60.5969C460.394 60.4965 460.535 60.6072 460.876 60.899Z" fill="white"/>
<path d="M34.2851 485.77C31.7576 483.13 33.6085 481.544 35.1371 480.005C37.0341 478.094 38.7224 479.624 40.1139 480.735C41.5854 481.91 41.4464 483.685 40.3558 485.091C38.7939 487.104 36.8695 488.005 34.2851 485.77Z" fill="#060505"/>
</g>
<defs>
<clipPath id="clip0_314_26">
<rect width="512" height="512" fill="white"/>
</clipPath>
</defs>
</svg>
