<svg version="1.1" id="Layer_1" xmlns="http://www.w3.org/2000/svg" xmlns:xlink="http://www.w3.org/1999/xlink" x="0px" y="0px"
	 width="100%" viewBox="0 0 512 512" enable-background="new 0 0 512 512" xml:space="preserve">
<path fill="#FFFFFF" opacity="1.000000" stroke="none" 
	d="
M443.743866,1.269667 
	C465.657806,1.000000 487.316467,1.092803 508.972595,0.902999 
	C512.339111,0.873494 513.101685,1.490364 513.098511,4.970272 
	C512.981506,133.084473 513.000000,261.198792 513.000000,389.313110 
	C513.000000,429.130188 512.938232,468.947479 513.103577,508.763885 
	C513.118713,512.406067 512.309753,513.096436 508.739105,513.094055 
	C347.138550,512.985535 185.537933,513.000000 23.468658,513.000000 
	C22.609058,512.602112 22.495222,512.137634 22.891348,511.301849 
	C28.647688,503.118805 35.205627,496.381653 44.158253,492.395905 
	C46.510834,491.348511 47.783981,489.646667 48.372887,487.216248 
	C49.823349,481.230133 51.298946,475.248901 52.859791,469.291351 
	C53.674877,466.180206 52.924992,464.183868 49.758633,463.056641 
	C46.468685,461.885468 43.224247,460.563019 40.023708,459.162323 
	C37.445919,458.034180 35.632332,458.483002 34.183247,460.992371 
	C31.436676,465.748566 28.559078,470.429321 25.741411,475.144562 
	C23.922112,478.189087 24.751230,481.227142 25.268579,484.351898 
	C26.692356,492.951385 27.437752,501.535065 23.707329,510.185181 
	C23.026636,511.060730 22.478846,511.587463 22.216846,512.696350 
	C15.669526,513.000000 9.337414,512.921021 3.009663,513.052307 
	C1.299467,513.087708 0.623396,512.776978 0.979311,511.006226 
	C1.108046,510.365753 1.000000,509.677643 1.000000,509.011292 
	C1.000000,341.087158 1.014841,173.162979 0.901325,5.238913 
	C0.898871,1.608737 1.677674,0.902276 5.257390,0.905052 
	C148.859085,1.016422 292.460907,1.000000 436.531342,1.000000 
	C436.517242,3.898141 434.040070,3.093189 432.317932,3.356529 
	C401.095520,8.130907 371.466888,17.846146 343.161011,31.781277 
	C339.300323,33.681911 336.329041,36.285385 333.750122,39.701107 
	C322.545044,54.542053 313.752899,70.775238 305.617340,87.418449 
	C304.602661,89.494225 303.946259,93.451523 301.301239,92.588387 
	C298.617828,91.712746 300.441315,88.125473 300.787537,85.808388 
	C302.371948,75.203545 305.953186,65.149467 309.577972,55.115177 
	C310.131104,53.583897 311.118683,52.183445 311.117340,50.121124 
	C303.812988,52.890877 297.486328,57.180740 290.758575,60.649902 
	C285.139740,63.547249 279.784637,66.984001 274.143372,69.834435 
	C262.599609,75.667274 256.760925,85.912201 252.124191,97.217087 
	C249.332062,104.024628 247.439438,111.095085 245.741211,118.234375 
	C245.340469,119.919052 245.440369,121.936478 243.216660,123.141953 
	C240.990662,120.317703 241.683228,117.174255 242.189362,114.159843 
	C243.570801,105.932373 245.661179,97.872345 248.167587,89.915016 
	C248.652267,88.376297 249.630051,86.914986 249.210876,84.797783 
	C241.406311,88.857796 234.441284,93.860748 227.640503,99.116951 
	C214.580505,109.210732 202.003326,119.872849 190.573792,131.794342 
	C182.048737,140.686325 173.665741,149.749054 166.231857,159.587021 
	C159.683578,168.252975 156.518417,178.518341 153.926849,188.874329 
	C150.046539,204.380188 149.033035,220.085312 151.777679,235.934265 
	C152.137894,238.014343 153.010620,241.089783 150.690948,241.718811 
	C147.857193,242.487274 147.307266,239.152939 146.603699,237.076050 
	C144.994156,232.324844 143.859436,227.361847 143.878998,222.388412 
	C143.904633,215.864639 142.297653,209.501282 142.800003,202.352158 
	C139.937180,203.782516 138.436646,205.938171 136.644287,207.682602 
	C124.569824,219.434189 113.699020,232.248657 103.088287,245.321014 
	C89.174812,262.462311 81.447807,282.202606 77.219505,303.630524 
	C74.284035,318.506653 71.649231,333.427673 69.217949,348.390015 
	C68.830620,350.773682 68.765198,353.343933 65.670853,355.875336 
	C62.874466,344.654480 65.213791,334.367432 65.801048,325.817078 
	C63.622688,331.765900 61.446808,339.622986 60.231220,347.804565 
	C59.035660,355.851349 60.200069,364.024292 58.658604,372.119781 
	C52.770424,360.968872 52.983486,348.823334 51.874340,338.286224 
	C49.676933,346.196381 47.569103,355.566589 46.062103,365.032776 
	C43.572174,380.673126 41.875156,396.392639 44.199337,412.240234 
	C44.606941,415.019501 44.690895,418.060699 48.505905,418.628082 
	C51.985954,419.145721 53.602722,417.069580 55.026604,414.378998 
	C72.197609,381.932953 92.184601,351.208435 112.661537,320.806030 
	C134.354630,288.597931 157.347977,257.339050 181.777023,227.129181 
	C206.055008,197.106140 234.459351,171.702301 265.911407,149.419617 
	C288.488464,133.424545 311.254974,117.758217 334.815521,103.250290 
	C349.433441,94.248962 364.371643,85.775887 379.648834,77.993416 
	C405.496979,64.825912 428.943817,48.270069 451.144470,29.737782 
	C459.449341,22.805195 467.303802,15.350153 474.376404,9.738523 
	C466.483856,15.705911 456.236542,21.374916 446.643555,28.034468 
	C445.331451,28.945353 443.679504,30.376089 442.156464,28.950985 
	C440.594269,27.489248 442.000061,25.808918 442.887939,24.483852 
	C445.855255,20.055582 448.448212,15.387201 451.956970,10.341161 
	C445.947937,16.349939 440.495300,21.806604 435.037140,27.257685 
	C433.976410,28.317070 432.965240,29.440172 431.742004,30.313480 
	C430.664368,31.082842 429.437347,32.050804 428.156921,30.941364 
	C426.900665,29.852869 427.523315,28.402506 428.182678,27.271404 
	C433.208801,18.649496 437.726990,9.723948 443.743866,1.269667 
z"/>
<path fill="#010002" opacity="1.000000" stroke="none" 
	d="
M443.562500,1.000000 
	C441.758270,7.810254 437.306580,13.420723 433.898743,19.597754 
	C431.837189,23.334513 429.744904,27.054319 428.615265,31.502562 
	C436.854279,22.858669 445.093292,14.214779 453.332306,5.570888 
	C453.981018,6.106496 454.629700,6.642105 455.278412,7.177713 
	C450.820068,14.264633 446.361694,21.351553 441.903351,28.438475 
	C442.125519,28.673418 442.347687,28.908363 442.569885,29.143309 
	C454.898224,21.125721 467.226562,13.108135 479.554901,5.090548 
	C479.848846,5.448887 480.142792,5.807225 480.436737,6.165564 
	C476.691101,9.000941 473.471497,12.405875 469.966583,15.425454 
	C460.325073,23.731888 450.487579,31.814888 440.616211,39.849369 
	C426.693115,51.181568 412.090698,61.547657 396.344604,70.232506 
	C367.901764,85.920357 339.311554,101.290367 312.087006,119.151482 
	C289.236664,134.142838 267.159698,150.160751 245.262436,166.437759 
	C230.993607,177.044281 217.495255,188.705917 205.591202,201.983826 
	C190.557419,218.752655 176.151413,236.034729 162.396912,253.909821 
	C140.003403,283.011993 118.914307,313.016449 98.914795,343.767670 
	C84.628853,365.733704 70.209648,387.670837 58.371746,411.135620 
	C57.146053,413.565125 55.459614,415.770996 54.328487,418.237305 
	C52.665703,421.862762 49.685345,419.370911 47.388100,419.932373 
	C45.580746,420.374054 44.281796,419.556000 43.957924,417.388489 
	C43.434441,413.885071 42.246674,410.439758 42.067432,406.932709 
	C40.821285,382.550598 45.094734,358.846405 51.263721,335.403076 
	C51.450493,334.693329 52.049385,334.092072 52.740776,332.984070 
	C53.692898,346.327759 54.338512,359.196899 58.700020,371.565643 
	C56.774929,353.919128 59.272186,337.058319 66.958817,321.051422 
	C66.640388,332.223022 64.684502,343.333862 66.791298,354.587067 
	C68.860802,342.579529 70.769188,330.541443 73.037521,318.571564 
	C76.448906,300.569977 79.638412,282.443695 88.067947,265.908295 
	C93.896744,254.474518 101.861069,244.397888 110.043068,234.602631 
	C120.413544,222.187439 131.475250,210.371399 143.533722,199.166672 
	C145.465210,213.509811 143.305939,228.387924 150.493546,241.651901 
	C150.693024,233.444824 148.739914,225.449097 148.964050,217.260437 
	C149.434494,200.072495 152.882721,183.669617 159.861969,167.843155 
	C163.860428,158.776031 170.759979,152.164948 176.833450,144.884735 
	C183.396469,137.017715 190.581390,129.597137 198.052917,122.575417 
	C213.723679,107.848099 230.388199,94.316605 248.773163,83.035995 
	C249.571075,82.546425 250.507751,82.283035 252.128296,81.597794 
	C248.018356,95.392319 243.077042,108.416077 243.284714,122.477432 
	C246.182098,107.697891 250.945374,93.619408 259.102325,80.925438 
	C262.109589,76.245483 266.472321,72.665253 271.501862,69.960693 
	C284.954956,62.726490 298.329071,55.345337 311.753326,48.057178 
	C312.136566,47.849110 312.731476,48.030884 313.727570,48.030884 
	C307.900665,62.527977 302.885162,77.068878 301.561859,92.713356 
	C304.703613,86.522026 307.917969,80.366272 310.972290,74.132126 
	C317.806519,60.182976 326.060486,47.060493 335.797668,35.048870 
	C340.018555,29.842096 347.328491,28.053688 353.465698,25.359001 
	C366.510040,19.631565 379.891754,14.699739 393.614258,10.727627 
	C407.755829,6.634209 421.970917,3.004634 436.849731,1.396084 
	C439.041656,1.000000 441.083344,1.000000 443.562500,1.000000 
z"/>
<path fill="#010002" opacity="1.000000" stroke="none" 
	d="
M23.698601,511.241333 
	C23.534655,511.872192 23.297539,512.158569 23.030212,512.722534 
	C23.000000,513.000000 22.500000,513.000000 22.250000,513.000000 
	C22.107788,512.384033 22.215578,511.768097 22.622490,511.037170 
	C23.156218,510.913727 23.390825,510.905304 23.698601,511.241333 
z"/>
<path fill="#010002" opacity="1.000000" stroke="none" 
	d="
M460.896362,61.196815 
	C466.787933,60.582493 471.733521,57.664257 477.045898,55.916622 
	C480.673798,54.723137 484.067780,52.818546 487.999969,51.035225 
	C487.999969,56.566395 487.808075,61.667000 488.081879,66.742477 
	C488.216400,69.235916 487.027222,70.053253 485.151764,71.003609 
	C472.012726,77.661522 458.535278,83.473114 444.379425,87.760559 
	C452.693268,87.519585 460.686401,85.508476 468.686279,83.649742 
	C472.894409,82.672005 476.985718,81.196083 481.142303,79.988235 
	C481.982330,79.744125 482.774170,78.281517 483.627136,79.417465 
	C484.120178,80.074097 484.231171,81.477287 483.871399,82.242226 
	C480.875366,88.612381 478.176636,94.847260 471.173553,98.571167 
	C453.428223,108.007332 434.779083,114.029091 414.797638,116.038017 
	C412.877808,116.231026 411.098450,117.244400 409.045380,117.037598 
	C407.254028,116.857162 405.430176,116.999992 403.627625,117.322083 
	C413.196808,119.268501 422.745789,118.208939 432.321899,117.352142 
	C443.491882,116.352722 454.183533,113.493599 464.860046,110.205566 
	C468.317841,109.140678 466.884155,112.472168 466.414520,114.094391 
	C463.354797,124.663170 458.494751,134.347519 452.177002,143.361694 
	C442.761078,156.796387 431.118561,166.941696 414.748291,171.186462 
	C409.251404,172.611801 404.070984,175.386765 398.399536,176.656494 
	C408.346191,176.386063 417.946564,173.940399 427.738586,172.328384 
	C417.159454,178.999634 405.807068,183.952545 394.277374,188.603714 
	C400.807983,189.361420 406.919128,186.758652 413.825500,187.033493 
	C409.505676,194.696472 402.678284,199.314667 396.021179,203.953033 
	C370.292908,221.879440 341.090942,231.543060 311.029541,238.938370 
	C296.803986,242.437943 282.409241,244.792618 267.639038,245.267029 
	C261.417877,245.466843 255.320633,245.588745 249.114975,245.077805 
	C237.617538,244.131165 226.392883,245.945374 215.461838,249.881454 
	C224.091187,248.570465 232.776443,249.373032 241.411682,248.915802 
	C251.367844,248.388626 260.768402,251.199387 270.419525,252.609131 
	C281.811584,254.273163 293.324860,255.086716 304.855103,253.095642 
	C309.041321,252.372757 313.350952,252.680801 317.620392,252.255493 
	C325.083466,251.512039 332.481018,250.703964 339.790985,249.030609 
	C340.688141,248.825256 341.672882,249.002625 342.948792,249.002625 
	C332.538940,271.388672 317.705872,289.266541 295.436310,299.664764 
	C284.015778,304.997314 271.749481,308.500854 259.933044,313.008179 
	C247.748734,317.655884 235.248978,321.200226 222.483566,323.715515 
	C216.424530,324.909332 210.203003,325.288574 204.049957,325.991699 
	C199.858704,326.470642 195.658524,326.871277 191.485779,328.000000 
	C194.241974,328.000000 196.999191,327.950806 199.754150,328.009277 
	C207.677628,328.177399 215.587341,328.311218 223.518600,328.779022 
	C235.791031,329.502930 247.274307,324.908325 258.746063,321.031769 
	C260.864288,320.315979 263.006683,319.671722 265.531616,318.957214 
	C266.191559,318.882629 266.457794,318.845215 266.735748,319.210968 
	C251.571548,330.204041 235.613480,339.482544 219.351532,348.294830 
	C201.689926,357.865570 183.710068,366.626862 164.637543,373.103851 
	C152.795395,377.125427 140.488541,378.690674 128.313843,381.025757 
	C121.128517,382.403900 113.880440,383.671417 106.876869,387.184326 
	C109.912529,389.188354 112.409248,387.294586 114.540222,386.791473 
	C124.699646,384.392822 134.959381,383.424500 145.285095,384.084045 
	C159.910751,385.018280 172.991440,379.971832 185.982315,374.455322 
	C193.312012,371.342834 200.445694,367.768738 208.383850,364.068756 
	C206.058365,368.897949 201.813416,371.135956 198.439026,373.678833 
	C179.943451,387.616760 159.571884,398.015045 137.214417,404.371552 
	C125.036575,407.833801 112.531471,410.736511 101.216805,416.296082 
	C92.840118,420.412048 84.693939,421.827820 75.452515,420.627777 
	C78.111137,413.483887 82.445694,406.954773 86.410324,400.394928 
	C99.066483,379.454285 111.759529,358.526123 125.822777,338.458527 
	C136.695419,322.943787 147.890945,307.687500 159.662155,292.851410 
	C170.850540,278.749878 182.332291,264.911743 194.636200,251.737488 
	C204.786362,240.869324 214.429581,229.495865 225.285614,219.331039 
	C242.995331,202.748917 260.984650,186.510452 279.933197,171.267639 
	C303.301575,152.469391 328.598694,136.624634 353.471130,120.076790 
	C374.334686,106.196075 394.538300,91.386597 414.460114,76.170944 
	C429.821625,64.438339 445.074738,52.575550 460.039185,40.350822 
	C465.654510,35.763580 470.734100,30.513060 475.980957,25.484589 
	C480.353760,21.293743 480.321228,21.230062 483.587524,26.091393 
	C484.828583,27.938480 486.316803,29.580530 487.058044,31.807087 
	C489.368713,38.748035 488.443634,42.003704 482.609192,45.785789 
	C475.330688,50.503990 468.017181,55.168274 460.485718,60.120808 
	C460.710846,60.543064 459.974091,61.299629 460.896362,61.196815 
z"/>
<path fill="#010002" opacity="1.000000" stroke="none" 
	d="
M416.729431,68.765221 
	C400.807251,79.840218 385.396271,91.005051 369.370605,101.299240 
	C351.198883,112.971947 333.125641,124.815643 315.334320,137.056992 
	C301.967834,146.253799 289.355865,156.491226 276.670349,166.635834 
	C252.217941,186.190384 229.920547,208.007874 208.215332,230.441269 
	C193.854614,245.283752 180.485672,261.037262 167.277802,276.956726 
	C148.093430,300.079712 130.426605,324.290405 113.615211,349.107666 
	C102.167732,366.006622 91.871887,383.700378 81.413933,401.249023 
	C75.922043,410.464478 70.014267,419.490906 65.917305,429.489227 
	C64.643181,432.598633 62.691666,435.593872 62.200409,438.816711 
	C61.661449,442.352448 59.816483,441.539124 57.967823,440.941559 
	C48.397568,437.847809 48.509365,437.859680 53.976097,428.041046 
	C70.646248,398.100189 88.317200,368.755859 107.056152,340.076111 
	C122.787773,315.998993 139.405258,292.499481 156.977570,269.739044 
	C168.954376,254.226151 181.500717,239.136536 194.704956,224.587692 
	C205.383759,212.821426 215.905243,200.902969 227.552551,190.115509 
	C239.629349,178.930237 252.589279,168.764359 265.582428,158.619232 
	C285.747681,142.874054 306.573059,128.118622 328.156158,114.443703 
	C345.951141,103.168907 364.093384,92.442749 382.063873,81.444283 
	C405.378052,67.175362 429.238281,53.809910 452.240265,39.021748 
	C453.785248,38.028458 454.573029,35.661377 458.348572,36.224575 
	C444.614349,48.123882 430.690887,58.175152 416.729431,68.765221 
z"/>
<path fill="#010002" opacity="1.000000" stroke="none" 
	d="
M483.502014,389.793335 
	C468.639832,390.969666 454.348541,393.274719 440.178650,396.101868 
	C415.114136,401.102570 390.426910,407.606598 366.231934,415.937225 
	C345.924042,422.929504 325.904022,430.648865 306.267761,439.333466 
	C283.389984,449.451660 260.749664,460.118530 237.744675,469.934113 
	C209.216293,482.106354 179.771408,491.494568 149.410645,498.156708 
	C133.599075,501.626312 117.681862,504.439972 101.711983,506.715790 
	C93.676231,507.860962 85.458649,508.672424 77.257759,509.093781 
	C66.753006,509.633484 56.276108,510.672974 45.752956,511.101013 
	C41.970581,511.254852 39.406475,509.203369 39.400608,506.509552 
	C39.394726,503.808502 42.022667,502.078217 45.725319,501.851776 
	C61.906101,500.862061 78.134872,499.953857 94.195770,497.861267 
	C122.999161,494.108521 151.366104,488.167786 179.171616,479.484070 
	C206.618408,470.912384 233.267563,460.489502 259.324982,448.352661 
	C295.938599,431.298950 332.648895,414.404633 371.510223,402.878357 
	C393.265076,396.425812 415.215942,390.884705 437.584015,386.787567 
	C451.953735,384.155487 466.429016,382.430878 480.825867,380.107910 
	C483.264587,379.714447 485.981293,379.375244 488.546082,380.806671 
	C490.576080,381.939606 492.339417,382.990173 491.962921,385.587585 
	C491.574768,388.265259 489.166992,388.417511 487.197632,388.972351 
	C486.131012,389.272888 484.854309,388.583221 483.502014,389.793335 
z"/>
<path fill="#010002" opacity="1.000000" stroke="none" 
	d="
M23.127222,511.096924 
	C25.621269,500.820038 26.111015,490.716217 23.018639,480.589813 
	C21.898325,476.921173 24.721012,474.452576 26.150459,471.720764 
	C28.682283,466.882141 31.926826,462.421600 34.652241,457.675995 
	C35.465893,456.259186 35.647205,455.855835 37.420231,456.669098 
	C42.065376,458.799774 46.929230,460.453857 51.706905,462.295288 
	C54.309795,463.298553 55.624157,464.659607 54.666584,467.876587 
	C52.560070,474.953522 50.644138,482.108246 49.162590,489.336212 
	C48.761684,491.292023 47.950733,492.335327 46.538246,492.825409 
	C36.827278,496.194397 30.448803,503.540588 24.020317,511.371216 
	C23.625469,511.481079 23.479153,511.376404 23.127222,511.096924 
z"/>
<path fill="#010002" opacity="1.000000" stroke="none" 
	d="
M56.115440,445.983215 
	C57.110027,446.236633 57.682426,446.573975 58.297161,446.693420 
	C63.835892,447.769440 62.912186,450.620850 61.191429,454.715851 
	C59.550610,458.620514 57.885792,459.491821 54.119297,457.666565 
	C49.107403,455.237762 43.960701,453.048431 38.737980,451.118683 
	C37.318806,450.594330 36.627430,450.126801 37.072468,448.884949 
	C37.984142,446.341125 39.067165,443.846375 40.266960,441.424225 
	C40.739983,440.469269 41.400082,439.649536 43.003162,440.429535 
	C47.154839,442.449554 51.465622,444.142517 56.115440,445.983215 
z"/>
<path fill="#010002" opacity="1.000000" stroke="none" 
	d="
M460.718506,33.939610 
	C460.130798,35.010410 458.844574,35.983742 458.288910,34.787331 
	C457.863159,33.870548 459.777985,34.155907 460.718506,33.939610 
z"/>
<path fill="#010002" opacity="1.000000" stroke="none" 
	d="
M266.124451,319.101074 
	C266.403381,317.645691 267.433716,318.017517 268.362946,318.110260 
	C268.823700,318.156250 268.962280,318.485443 268.577911,318.757019 
	C268.215546,319.013000 267.702393,319.055573 267.001526,319.403076 
	C266.606140,319.503448 266.464874,319.392792 266.124451,319.101074 
z"/>
<path fill="#010002" opacity="1.000000" stroke="none" 
	d="
M456.585541,5.794540 
	C455.524567,5.729043 455.513275,5.232825 455.952698,4.681839 
	C456.081940,4.519766 456.347931,4.466736 456.551239,4.363721 
	C456.671875,4.759184 456.792542,5.154653 456.585541,5.794540 
z"/>
<path fill="#010002" opacity="1.000000" stroke="none" 
	d="
M462.193085,32.080963 
	C462.444916,30.964855 463.003723,30.748241 463.694336,31.508186 
	C463.271027,31.812094 462.847717,32.115997 462.193085,32.080963 
z"/>
<path fill="#FFFFFF" opacity="1.000000" stroke="none" 
	d="
M426.339844,33.538551 
	C426.051086,32.656384 426.219177,31.813122 426.871643,32.126175 
	C427.996307,32.665813 426.938202,33.270542 426.339844,33.538551 
z"/>
<path fill="#FFFFFF" opacity="1.000000" stroke="none" 
	d="
M460.875549,60.898941 
	C460.596558,62.354275 459.566223,61.982536 458.636963,61.889732 
	C458.176270,61.843727 458.037750,61.514393 458.422119,61.242889 
	C458.784515,60.986889 459.297699,60.944324 459.998596,60.596817 
	C460.393890,60.496475 460.535126,60.607178 460.875549,60.898941 
z"/>
<path fill="#FFFFFF" opacity="1.000000" stroke="none" 
	d="
M34.285019,485.769592 
	C31.757557,483.130280 33.608425,481.544189 35.137039,480.004852 
	C37.034061,478.094574 38.722321,479.623871 40.113834,480.735107 
	C41.585358,481.910248 41.446308,483.685364 40.355713,485.091034 
	C38.793869,487.104156 36.869446,488.004852 34.285019,485.769592 
z"/>
</svg>