<svg width="450" height="450" viewBox="0 0 450 450" fill="none" xmlns="http://www.w3.org/2000/svg">
<rect width="450" height="450" fill="black"/>
<path d="M274.131 42.1436C258.662 42.1436 243.721 42.7588 229.57 44.2793L214.98 82.1777L210.674 46.9863C208.477 47.3906 206.279 47.8125 204.082 48.2783C196.084 49.9834 190.811 54.624 186.24 61.3477C181.67 68.0713 178.418 76.7285 175.605 84.7266C167.871 106.787 161.719 130.078 156.797 153.809C162.07 158.291 167.344 162.861 172.529 167.344L199.512 151.875L229.219 174.814L274.834 157.5L328.447 179.033L322.471 193.711L274.658 174.551L226.582 192.744L198.281 170.859L185.186 178.33C202.412 193.535 219.111 208.564 234.844 223.33L247.148 217.705L276.943 231.855L304.365 220.342L325.635 240.82L314.736 252.246L300.85 238.975L276.592 249.258L247.588 235.371C253.652 241.26 259.541 246.973 265.254 252.686L266.748 254.268L283.887 321.328L277.031 316.318L230.449 316.67L196.963 301.025L159.697 313.857L154.6 298.916L197.842 283.975L233.965 300.85L255.674 300.674L193.535 255.234C176.221 259.277 158.906 257.695 142.471 251.982C138.779 291.006 137.285 327.305 136.318 356.309C135.967 365.713 138.691 376.523 142.91 384.873C147.217 393.223 153.193 398.408 156.094 399.023C160.664 400.078 172.793 401.836 189.229 403.506L200.127 369.229L216.914 405.879C231.592 406.934 247.676 407.637 263.936 407.812C288.721 408.076 314.121 407.021 336.006 403.682C349.893 401.66 362.021 398.408 371.777 394.541C361.406 390.059 352.793 385.225 346.201 379.951C336.445 372.129 330.205 362.988 330.996 352.793V352.969C335.742 268.242 340.488 187.031 357.627 101.602L357.715 101.25L357.803 100.898C362.461 85.166 373.535 65.8652 389.531 51.8291C377.314 50.0186 364.395 48.3135 351.123 46.8545L331.523 69.0908L329.59 44.7451C312.891 43.3037 295.84 42.3633 279.141 42.1787H274.131V42.1436ZM404.648 60.1084C400.518 63.3516 396.562 67.166 392.959 71.2969C403.594 78.4863 411.768 91.8457 412.119 103.799C412.383 110.654 410.449 116.895 405.352 122.607C400.254 128.232 391.641 133.506 377.578 136.494L380.918 151.963C397.266 148.447 409.307 141.855 417.129 133.154C425.039 124.453 428.291 113.643 427.939 103.271C427.412 86.3086 418.184 70.2334 404.648 60.1084ZM22.3594 63.2022C22.1484 64.6172 22.0254 66.2168 22.0254 68.1416C22.1133 74.9004 23.8096 84.1113 27.1494 94.6582C30.1465 104.062 34.418 114.434 39.7617 125.244C49.1045 120.586 57.8584 115.576 64.7314 109.336C60.8467 120.322 55.8105 131.045 48.3838 141.416C52.0225 147.744 55.9688 154.072 60.2051 160.312C69.5566 155.654 78.416 148.887 86.1504 137.373C83.25 151.436 78.7061 164.268 70.0928 174.111C75.832 181.582 81.958 188.877 88.3301 195.645C95.9766 187.471 102.041 177.188 106.523 164.971C109.863 181.23 108.809 195.996 101.514 208.389C108.545 214.717 115.84 220.43 123.311 225.176C128.672 212.871 131.133 198.281 130.781 181.494C138.867 202.324 140.713 219.199 139.219 233.789C156.973 241.875 175.078 244.336 193.096 239.15L196.787 238.008L257.695 282.48L252.51 262.441C188.35 198.457 98.3496 124.717 22.3594 63.2022ZM274.922 108.896L304.102 121.025L331.611 112.324L336.357 127.441L303.398 137.9L273.867 125.596L248.555 132.715L244.336 117.422L274.922 108.896ZM369.228 316.494C368.613 316.494 368.086 316.582 367.471 316.582C364.395 316.67 361.143 317.021 357.715 317.725L360.703 333.193C371.426 331.172 378.281 332.842 382.236 335.391C386.103 337.939 387.773 341.367 387.861 346.377C387.949 354.551 381.709 366.592 367.383 374.941C372.129 377.49 377.842 380.127 384.346 382.588C397.002 372.393 403.77 359.033 403.682 346.201C403.594 336.797 399.111 327.568 390.85 322.119C384.961 318.34 377.666 316.406 369.228 316.494Z" fill="white"/>
</svg>
