<svg version="1.1" id="Layer_1" xmlns="http://www.w3.org/2000/svg" xmlns:xlink="http://www.w3.org/1999/xlink" x="0px" y="0px"
	 width="100%" viewBox="0 0 512 512" enable-background="new 0 0 512 512" xml:space="preserve">
<path fill="#FFFFFF" opacity="1.000000" stroke="none" 
	d="
M1.000000,498.000000 
	C1.000000,332.407684 1.000000,166.815384 1.000000,1.000000 
	C153.024002,1.000000 305.048126,1.000000 457.419006,1.369442 
	C446.215424,4.118168 439.395721,11.799819 435.031586,22.151716 
	C432.916046,27.169863 431.139160,32.337044 428.858276,37.274734 
	C428.289703,38.505554 426.417755,39.780956 425.049866,39.894855 
	C412.711975,40.922215 406.721313,46.128262 402.029449,57.064003 
	C399.504303,62.949619 397.173279,68.918785 394.629547,74.796104 
	C388.134064,89.803825 381.503571,104.753296 375.047638,119.777870 
	C367.394684,137.588364 359.902008,155.467651 352.275909,173.289764 
	C345.907227,188.173264 339.387878,202.992416 333.040649,217.884995 
	C324.561646,237.779495 316.261688,257.750519 307.740448,277.626740 
	C300.286316,295.013947 292.573822,312.290253 285.083069,329.661957 
	C277.343231,347.611298 269.745056,365.621613 262.061737,383.595337 
	C257.778717,393.614655 251.690613,403.266968 249.628845,413.718506 
	C247.524628,424.385132 249.195236,435.832520 249.520737,446.929108 
	C249.722595,453.810852 250.496964,460.675812 251.069550,468.281311 
	C245.369873,461.250275 240.654266,454.614227 235.086472,448.793274 
	C229.425735,442.875183 223.265503,437.306549 216.716599,432.394775 
	C205.425446,423.926178 192.844040,419.776520 178.447021,422.948364 
	C165.264725,425.852570 157.149628,435.311890 149.021149,444.852112 
	C142.452713,452.561340 136.606110,461.024719 129.275665,467.915710 
	C115.201149,481.146667 99.923630,477.313232 86.131630,464.766022 
	C93.495445,458.951660 100.705627,452.897583 108.287186,447.351166 
	C122.001152,437.318390 134.093643,425.777802 143.152405,411.307037 
	C149.743774,400.777710 153.023544,389.374725 149.537430,377.103149 
	C142.183701,351.217041 114.489006,337.137909 89.146515,343.409576 
	C71.664215,347.735962 57.176750,357.067017 46.858013,371.822998 
	C35.183445,388.517792 31.064621,407.106232 35.686047,427.282349 
	C38.580120,439.917236 44.003139,451.365448 52.051506,461.931610 
	C40.476681,469.047913 28.960772,475.806824 17.803463,483.113312 
	C11.542964,487.213013 3.672796,489.755615 1.000000,498.000000 
z"/>
<path fill="#000000" opacity="1.000000" stroke="none" 
	d="
M1.000000,498.399994 
	C3.672796,489.755615 11.542964,487.213013 17.803463,483.113312 
	C28.960772,475.806824 40.476681,469.047913 52.051506,461.931610 
	C44.003139,451.365448 38.580120,439.917236 35.686047,427.282349 
	C31.064621,407.106232 35.183445,388.517792 46.858013,371.822998 
	C57.176750,357.067017 71.664215,347.735962 89.146515,343.409576 
	C114.489006,337.137909 142.183701,351.217041 149.537430,377.103149 
	C153.023544,389.374725 149.743774,400.777710 143.152405,411.307037 
	C134.093643,425.777802 122.001152,437.318390 108.287186,447.351166 
	C100.705627,452.897583 93.495445,458.951660 86.131630,464.766022 
	C99.923630,477.313232 115.201149,481.146667 129.275665,467.915710 
	C136.606110,461.024719 142.452713,452.561340 149.021149,444.852112 
	C157.149628,435.311890 165.264725,425.852570 178.447021,422.948364 
	C192.844040,419.776520 205.425446,423.926178 216.716599,432.394775 
	C223.265503,437.306549 229.425735,442.875183 235.086472,448.793274 
	C240.654266,454.614227 245.369873,461.250275 251.069550,468.281311 
	C250.496964,460.675812 249.722595,453.810852 249.520737,446.929108 
	C249.195236,435.832520 247.524628,424.385132 249.628845,413.718506 
	C251.690613,403.266968 257.778717,393.614655 262.061737,383.595337 
	C269.745056,365.621613 277.343231,347.611298 285.083069,329.661957 
	C292.573822,312.290253 300.286316,295.013947 307.740448,277.626740 
	C316.261688,257.750519 324.561646,237.779495 333.040649,217.884995 
	C339.387878,202.992416 345.907227,188.173264 352.275909,173.289764 
	C359.902008,155.467651 367.394684,137.588364 375.047638,119.777870 
	C381.503571,104.753296 388.134064,89.803825 394.629547,74.796104 
	C397.173279,68.918785 399.504303,62.949619 402.029449,57.064003 
	C406.721313,46.128262 412.711975,40.922215 425.049866,39.894855 
	C426.417755,39.780956 428.289703,38.505554 428.858276,37.274734 
	C431.139160,32.337044 432.916046,27.169863 435.031586,22.151716 
	C439.395721,11.799819 446.215424,4.118168 457.882904,1.369442 
	C462.689240,1.000000 467.378510,1.000000 472.651093,1.369551 
	C491.289825,5.326272 501.054108,24.051201 496.353516,41.001026 
	C494.362396,48.180782 490.672668,54.875565 488.130951,61.926311 
	C487.497589,63.683208 487.513184,66.744682 488.607361,67.882851 
	C496.732819,76.334908 496.530121,85.665977 492.342682,95.870590 
	C499.908875,100.873665 507.414856,106.169395 510.182617,115.661591 
	C511.182312,119.090073 512.064331,122.552864 513.000000,126.000000 
	C513.000000,127.388893 513.000000,128.777786 512.607666,130.728363 
	C511.841980,133.686310 512.036499,136.369904 510.995117,138.428192 
	C506.889893,146.541946 502.630737,154.598083 497.997070,162.419876 
	C488.969299,177.659058 480.580597,193.222595 477.118408,210.741394 
	C474.765228,222.648392 473.688721,234.806244 471.992950,246.845108 
	C470.993317,253.942001 466.884979,256.825775 459.124420,255.999390 
	C455.252838,255.587128 450.623352,249.243774 451.030945,244.621307 
	C451.588501,238.297729 452.023407,231.938660 453.070801,225.688660 
	C454.695526,215.993484 456.200775,206.214142 458.809631,196.761093 
	C464.690887,175.450775 475.791168,156.597824 488.104431,138.474045 
	C494.514893,129.038544 491.620514,120.258293 483.580597,116.155945 
	C481.881775,120.109787 480.183716,124.070503 478.478699,128.028198 
	C472.329620,142.301422 466.128235,156.552353 460.040558,170.851715 
	C452.764709,187.941986 445.620575,205.088303 438.352722,222.181992 
	C432.961914,234.860916 427.424683,247.477539 422.024750,260.152618 
	C414.806702,277.095276 407.694336,294.082947 400.469177,311.022552 
	C394.371887,325.317871 388.128296,339.550842 382.040710,353.850250 
	C374.764984,370.940582 367.581482,388.070160 360.367188,405.186584 
	C354.894928,418.169708 349.557159,431.211395 343.914398,444.119843 
	C341.611755,449.387360 339.693359,455.422211 335.785553,459.260620 
	C328.285187,466.627899 319.533112,472.732178 311.220825,479.259186 
	C296.845825,490.546783 282.410187,501.757172 268.000000,513.000000 
	C265.299988,513.000000 262.599976,513.000000 259.369934,512.656189 
	C257.572723,511.332520 256.023529,510.568359 255.082733,509.338776 
	C247.317245,499.189087 239.785950,488.858856 231.946426,478.767609 
	C222.455383,466.550415 212.793594,454.415497 199.034393,446.580353 
	C191.950439,442.546387 184.539902,440.687103 177.367935,446.378387 
	C173.138657,449.734528 169.494980,453.942322 166.042099,458.140656 
	C157.523468,468.498260 149.808044,479.552338 138.850113,487.675079 
	C127.246941,496.276154 114.556488,499.246643 100.321243,496.102966 
	C88.325348,493.453796 78.417747,487.163330 69.026764,479.661224 
	C68.002785,478.843231 65.615219,478.462494 64.606369,479.086121 
	C49.973545,488.131622 35.559185,497.532410 20.877153,506.495331 
	C16.459044,509.192474 11.418171,512.276550 6.178012,507.965332 
	C4.173119,506.315857 2.710014,504.007874 1.000005,502.000000 
	C1.000000,500.933319 1.000000,499.866669 1.000000,498.399994 
M397.966461,252.289780 
	C397.980530,251.957108 397.899658,251.583694 398.022369,251.297623 
	C403.330505,238.922409 408.643860,226.549393 413.991730,214.191315 
	C415.056335,211.731216 415.833221,210.305786 412.054565,208.806915 
	C398.806915,203.552048 385.843750,197.580017 372.359619,191.700241 
	C371.524933,193.572739 370.749939,195.278183 370.001587,196.995255 
	C363.404022,212.133301 356.726074,227.237030 350.238098,242.421906 
	C341.739990,262.311462 333.476715,282.301483 324.955780,302.181122 
	C317.438599,319.718994 309.639862,337.136047 302.086609,354.658691 
	C293.332550,374.967072 284.794586,395.368988 275.954193,415.639313 
	C274.369812,419.272217 275.318237,421.503571 278.134613,423.607605 
	C289.167145,431.849792 301.515625,436.966766 315.132202,438.844360 
	C316.347473,439.011932 318.520050,437.605591 319.070404,436.394928 
	C324.511475,424.424927 329.778412,412.373810 334.948669,400.283203 
	C342.319031,383.047638 349.549683,365.752411 356.872467,348.496460 
	C362.882812,334.333191 368.947693,320.193115 374.975433,306.037231 
	C382.507416,288.348755 390.026154,270.654663 397.966461,252.289780 
M439.033539,154.708023 
	C441.679474,148.864746 444.444733,143.072098 446.948730,137.168610 
	C454.259674,119.932007 461.466339,102.651169 468.684723,85.457069 
	C454.617371,79.338440 440.460999,73.181107 425.895050,66.845627 
	C410.673157,102.255470 395.646179,137.211823 380.611084,172.187103 
	C395.247345,178.464676 409.451904,184.557098 423.860474,190.737030 
	C428.896088,179.016525 433.948059,167.257950 439.033539,154.708023 
M100.943703,426.573975 
	C108.969620,418.445679 118.117599,411.351471 124.126694,401.365509 
	C128.250748,394.512146 131.596069,387.725128 127.837929,379.342865 
	C122.870255,368.262909 106.221535,360.551514 91.461739,364.763123 
	C67.218063,371.680939 48.252708,399.283386 57.103577,425.076721 
	C60.084618,433.764008 64.524872,441.950562 68.575310,450.984039 
	C79.932137,442.397949 90.134598,434.684601 100.943703,426.573975 
M456.960052,36.440212 
	C455.056366,40.816811 453.152649,45.193413 451.187897,49.710369 
	C455.038696,51.417076 458.898315,53.127712 463.174835,55.023113 
	C466.152405,47.954494 469.246704,41.284111 471.733398,34.394402 
	C472.826263,31.366438 471.979431,28.354528 468.359192,26.762478 
	C464.785400,25.190830 462.154938,25.883276 460.282440,29.247316 
	C459.118622,31.338081 458.111145,33.515854 456.960052,36.440212 
M275.000275,449.177277 
	C275.619659,457.329224 276.239075,465.481140 276.897827,474.151123 
	C284.055054,468.285217 290.549683,462.962402 297.099640,457.594208 
	C289.573517,454.121552 282.410828,450.816620 275.248138,447.511688 
	C275.166748,447.792908 275.085388,448.074158 275.000275,449.177277 
z"/>
<path fill="#FFFFFF" opacity="1.000000" stroke="none" 
	d="
M268.468628,513.000000 
	C282.410187,501.757172 296.845825,490.546783 311.220825,479.259186 
	C319.533112,472.732178 328.285187,466.627899 335.785553,459.260620 
	C339.693359,455.422211 341.611755,449.387360 343.914398,444.119843 
	C349.557159,431.211395 354.894928,418.169708 360.367188,405.186584 
	C367.581482,388.070160 374.764984,370.940582 382.040710,353.850250 
	C388.128296,339.550842 394.371887,325.317871 400.469177,311.022552 
	C407.694336,294.082947 414.806702,277.095276 422.024750,260.152618 
	C427.424683,247.477539 432.961914,234.860916 438.352722,222.181992 
	C445.620575,205.088303 452.764709,187.941986 460.040558,170.851715 
	C466.128235,156.552353 472.329620,142.301422 478.478699,128.028198 
	C480.183716,124.070503 481.881775,120.109787 483.580597,116.155945 
	C491.620514,120.258293 494.514893,129.038544 488.104431,138.474045 
	C475.791168,156.597824 464.690887,175.450775 458.809631,196.761093 
	C456.200775,206.214142 454.695526,215.993484 453.070801,225.688660 
	C452.023407,231.938660 451.588501,238.297729 451.030945,244.621307 
	C450.623352,249.243774 455.252838,255.587128 459.124420,255.999390 
	C466.884979,256.825775 470.993317,253.942001 471.992950,246.845108 
	C473.688721,234.806244 474.765228,222.648392 477.118408,210.741394 
	C480.580597,193.222595 488.969299,177.659058 497.997070,162.419876 
	C502.630737,154.598083 506.889893,146.541946 510.995117,138.428192 
	C512.036499,136.369904 511.841980,133.686310 512.607666,131.145020 
	C513.000000,258.244476 513.000000,385.488922 513.000000,513.000000 
	C431.645966,513.000000 350.291656,513.000000 268.468628,513.000000 
z"/>
<path fill="#FFFFFF" opacity="1.000000" stroke="none" 
	d="
M1.000005,502.482971 
	C2.710014,504.007874 4.173119,506.315857 6.178012,507.965332 
	C11.418171,512.276550 16.459044,509.192474 20.877153,506.495331 
	C35.559185,497.532410 49.973545,488.131622 64.606369,479.086121 
	C65.615219,478.462494 68.002785,478.843231 69.026764,479.661224 
	C78.417747,487.163330 88.325348,493.453796 100.321243,496.102966 
	C114.556488,499.246643 127.246941,496.276154 138.850113,487.675079 
	C149.808044,479.552338 157.523468,468.498260 166.042099,458.140656 
	C169.494980,453.942322 173.138657,449.734528 177.367935,446.378387 
	C184.539902,440.687103 191.950439,442.546387 199.034393,446.580353 
	C212.793594,454.415497 222.455383,466.550415 231.946426,478.767609 
	C239.785950,488.858856 247.317245,499.189087 255.082733,509.338776 
	C256.023529,510.568359 257.572723,511.332520 258.919983,512.656189 
	C173.000000,513.000000 86.999992,513.000000 1.000000,513.000000 
	C1.000000,509.621002 1.000000,506.293457 1.000005,502.482971 
z"/>
<path fill="#FFFFFF" opacity="1.000000" stroke="none" 
	d="
M513.000000,125.531342 
	C512.064331,122.552864 511.182312,119.090073 510.182617,115.661591 
	C507.414856,106.169395 499.908875,100.873665 492.342682,95.870590 
	C496.530121,85.665977 496.732819,76.334908 488.607361,67.882851 
	C487.513184,66.744682 487.497589,63.683208 488.130951,61.926311 
	C490.672668,54.875565 494.362396,48.180782 496.353516,41.001026 
	C501.054108,24.051201 491.289825,5.326272 473.117218,1.369551 
	C486.297882,1.000000 499.595795,1.000000 513.000000,1.000000 
	C513.000000,42.354172 513.000000,83.708427 513.000000,125.531342 
z"/>
<path fill="#FFFFFF" opacity="1.000000" stroke="none" 
	d="
M397.758545,252.626373 
	C390.026154,270.654663 382.507416,288.348755 374.975433,306.037231 
	C368.947693,320.193115 362.882812,334.333191 356.872467,348.496460 
	C349.549683,365.752411 342.319031,383.047638 334.948669,400.283203 
	C329.778412,412.373810 324.511475,424.424927 319.070404,436.394928 
	C318.520050,437.605591 316.347473,439.011932 315.132202,438.844360 
	C301.515625,436.966766 289.167145,431.849792 278.134613,423.607605 
	C275.318237,421.503571 274.369812,419.272217 275.954193,415.639313 
	C284.794586,395.368988 293.332550,374.967072 302.086609,354.658691 
	C309.639862,337.136047 317.438599,319.718994 324.955780,302.181122 
	C333.476715,282.301483 341.739990,262.311462 350.238098,242.421906 
	C356.726074,227.237030 363.404022,212.133301 370.001587,196.995255 
	C370.749939,195.278183 371.524933,193.572739 372.359619,191.700241 
	C385.843750,197.580017 398.806915,203.552048 412.054565,208.806915 
	C415.833221,210.305786 415.056335,211.731216 413.991730,214.191315 
	C408.643860,226.549393 403.330505,238.922409 398.022369,251.297623 
	C397.899658,251.583694 397.980530,251.957108 397.758545,252.626373 
z"/>
<path fill="#FFFFFF" opacity="1.000000" stroke="none" 
	d="
M439.016785,155.103699 
	C433.948059,167.257950 428.896088,179.016525 423.860474,190.737030 
	C409.451904,184.557098 395.247345,178.464676 380.611084,172.187103 
	C395.646179,137.211823 410.673157,102.255470 425.895050,66.845627 
	C440.460999,73.181107 454.617371,79.338440 468.684723,85.457069 
	C461.466339,102.651169 454.259674,119.932007 446.948730,137.168610 
	C444.444733,143.072098 441.679474,148.864746 439.016785,155.103699 
z"/>
<path fill="#FFFFFF" opacity="1.000000" stroke="none" 
	d="
M100.640381,426.772614 
	C90.134598,434.684601 79.932137,442.397949 68.575310,450.984039 
	C64.524872,441.950562 60.084618,433.764008 57.103577,425.076721 
	C48.252708,399.283386 67.218063,371.680939 91.461739,364.763123 
	C106.221535,360.551514 122.870255,368.262909 127.837929,379.342865 
	C131.596069,387.725128 128.250748,394.512146 124.126694,401.365509 
	C118.117599,411.351471 108.969620,418.445679 100.640381,426.772614 
z"/>
<path fill="#FFFFFF" opacity="1.000000" stroke="none" 
	d="
M456.996765,36.047394 
	C458.111145,33.515854 459.118622,31.338081 460.282440,29.247316 
	C462.154938,25.883276 464.785400,25.190830 468.359192,26.762478 
	C471.979431,28.354528 472.826263,31.366438 471.733398,34.394402 
	C469.246704,41.284111 466.152405,47.954494 463.174835,55.023113 
	C458.898315,53.127712 455.038696,51.417076 451.187897,49.710369 
	C453.152649,45.193413 455.056366,40.816811 456.996765,36.047394 
z"/>
<path fill="#FFFFFF" opacity="1.000000" stroke="none" 
	d="
M275.002136,448.766327 
	C275.085388,448.074158 275.166748,447.792908 275.248138,447.511688 
	C282.410828,450.816620 289.573517,454.121552 297.099640,457.594208 
	C290.549683,462.962402 284.055054,468.285217 276.897827,474.151123 
	C276.239075,465.481140 275.619659,457.329224 275.002136,448.766327 
z"/>
</svg>